<svg width="26" height="21" fill="none" xmlns="http://www.w3.org/2000/svg"><path d="M24.227.118H1.773C.768.118 0 .882 0 1.882v16.471c0 1 .768 1.765 1.773 1.765h22.454c1.005 0 1.773-.765 1.773-1.765V1.883c0-1-.768-1.765-1.773-1.765zm0 17L19.56 12.47a.86.86 0 00-1.24 0 .85.85 0 000 1.235l4.667 4.647H3.014l4.668-4.647a.85.85 0 000-1.235.86.86 0 00-1.241 0l-4.668 4.647V5.824l10.636 8a.956.956 0 00.532.176.956.956 0 00.532-.176l10.754-8v11.294zm0-15.236v1.706l-11.286 8.353L1.773 3.588V1.882h22.454z" fill="#0AD9C6"/></svg>